<?xml version="1.0" standalone="no"?>
<!DOCTYPE svg PUBLIC "-//W3C//DTD SVG 20010904//EN"
 "http://www.w3.org/TR/2001/REC-SVG-20010904/DTD/svg10.dtd">
<svg version="1.0" xmlns="http://www.w3.org/2000/svg"
 width="300.000000pt" height="300.000000pt" viewBox="0 0 300.000000 300.000000"
 preserveAspectRatio="xMidYMid meet">
<metadata>
Created by potrace 1.11, written by Peter Selinger 2001-2013
</metadata>
<g transform="translate(0.000000,300.000000) scale(0.100000,-0.100000)"
fill="#000000" stroke="none">
<path d="M1350 2993 c-184 -27 -271 -48 -400 -98 -437 -168 -782 -558 -901
-1016 -52 -202 -61 -467 -21 -664 75 -373 282 -701 583 -921 96 -71 128 -90
239 -144 142 -70 312 -120 465 -138 77 -9 304 -9 375 0 566 73 1041 461 1229
1004 83 239 101 543 47 804 -52 254 -201 529 -394 727 -225 230 -492 370 -827
434 -58 11 -344 20 -395 12z"/>
</g>
</svg>
