<svg width="257" height="282" fill="none" xmlns="http://www.w3.org/2000/svg"><path d="M167.503 32.6005L167.521 32.6068L167.539 32.6127C218.581 49.0835 255.5 96.9822 255.5 153.5C255.5 223.64 198.64 280.5 128.5 280.5C58.3598 280.5 1.5 223.64 1.5 153.5C1.5 96.8 38.6579 48.7747 89.9548 32.4544C104.142 27.9407 110.856 19.8937 115.686 13.1008C116.254 12.3025 116.788 11.5341 117.299 10.7985C118.989 8.36603 120.431 6.2912 122.028 4.67C124.017 2.65089 126.103 1.5 129 1.5C131.967 1.5 133.94 2.59102 135.746 4.47756C137.19 5.986 138.452 7.91183 139.962 10.2154C140.459 10.9739 140.983 11.7733 141.55 12.6123C146.062 19.2991 152.599 27.3659 167.503 32.6005Z" fill="#FEFFF8" stroke="#8783A0" stroke-width="3"/><path d="M90 122C90 142.435 84.4036 159 77.5 159 70.5964 159 65 142.435 65 122M192 122C192 142.435 186.404 159 179.5 159 172.596 159 167 142.435 167 122" stroke="#FFDED7" stroke-width="3" stroke-linecap="round"/><path d="M107 216C112.149 222.114 119.869 226 128.5 226 137.131 226 144.851 222.114 150 216M148 213L153.5 218M109.5 213L104 218" stroke="#FFDED7" stroke-width="2" stroke-linecap="round"/><path d="M152.306 106.876C153.342 107.259 154.492 106.73 154.876 105.694C155.259 104.658 154.73 103.508 153.694 103.124L152.306 106.876ZM104 86.8705L103.306 84.9948L98.2363 86.8705L103.306 88.7462L104 86.8705ZM153 68.741L153.694 70.6167L158.549 68.8204L153.747 66.8859L153 68.741ZM104.747 47.1449C103.723 46.7321 102.558 47.2281 102.145 48.2526C101.732 49.2772 102.228 50.4423 103.253 50.8551L104.747 47.1449ZM153.694 103.124L104.694 84.9948L103.306 88.7462L152.306 106.876L153.694 103.124ZM104.694 88.7462L153.694 70.6167L152.306 66.8653L103.306 84.9948L104.694 88.7462ZM153.747 66.8859L104.747 47.1449L103.253 50.8551L152.253 70.5961L153.747 66.8859Z" fill="#FFDED7"/><path d="M59 211C75.5235 191.436 100.302 179 128 179 155.698 179 180.476 191.436 197 211M107 262C112.149 255.886 119.869 252 128.5 252 137.131 252 144.851 255.886 150 262" stroke="#FFDED7" stroke-width="2" stroke-linecap="round"/></svg>