<svg width="257" height="282" fill="none" xmlns="http://www.w3.org/2000/svg"><path d="M167.503 32.6005L167.521 32.6068L167.539 32.6127C218.581 49.0835 255.5 96.9822 255.5 153.5C255.5 223.64 198.64 280.5 128.5 280.5C58.3598 280.5 1.5 223.64 1.5 153.5C1.5 96.8 38.6579 48.7747 89.9548 32.4544C104.142 27.9407 110.856 19.8937 115.686 13.1008C116.254 12.3025 116.788 11.5341 117.299 10.7985C118.989 8.36604 120.431 6.29121 122.028 4.67C124.017 2.65089 126.103 1.5 129 1.5C131.967 1.5 133.94 2.59102 135.746 4.47756C137.19 5.986 138.452 7.91183 139.962 10.2154C140.459 10.9739 140.983 11.7733 141.55 12.6123C146.062 19.2991 152.599 27.3659 167.503 32.6005Z" fill="#FCFFFD" stroke="#8783A0" stroke-width="3"/><path d="M111.881 143.181C112.362 148.408 108.109 152.8 101.343 156.153C94.6687 159.46 85.9949 161.511 78.6731 162.208C64.185 163.588 51.9828 155.332 50.9643 144.259C49.9464 133.192 60.4176 122.783 74.8919 121.393C84.586 121.001 93.6182 123.665 100.343 127.852C107.107 132.064 111.377 137.706 111.881 143.181Z" fill="#FFFFEC" stroke="#D3F7DF" stroke-width="2"/><ellipse rx="11.049" ry="11.101" transform="scale(-1 1) rotate(-15.993 474.174 349.303)" fill="#D7E0FF"/><path d="M145.741 143.181C145.26 148.408 149.513 152.8 156.279 156.153C162.953 159.46 171.627 161.511 178.949 162.208C193.437 163.588 205.639 155.332 206.658 144.259C207.676 133.192 197.204 122.783 182.73 121.393C173.036 121.001 164.004 123.665 157.279 127.852C150.515 132.065 146.245 137.706 145.741 143.181Z" fill="#FFFFEC" stroke="#D3F7DF" stroke-width="2"/><ellipse cx="179.735" cy="144.164" rx="11.049" ry="11.101" transform="rotate(-15.993 179.735 144.164)" fill="#D7E0FF"/><path d="M99.3218 210H157.678L151.743 231H105.257L99.3218 210Z" fill="#fff" stroke="#FFDED7" stroke-width="2"/><path d="M152.306 106.876C153.342 107.259 154.492 106.73 154.876 105.694C155.259 104.658 154.73 103.508 153.694 103.124L152.306 106.876ZM104 86.8705L103.306 84.9948L98.2363 86.8705L103.306 88.7462L104 86.8705ZM153 68.741L153.694 70.6167L158.549 68.8204L153.747 66.8859L153 68.741ZM104.747 47.1449C103.723 46.7321 102.558 47.2281 102.145 48.2526C101.732 49.2772 102.228 50.4423 103.253 50.8551L104.747 47.1449ZM153.694 103.124L104.694 84.9948L103.306 88.7462L152.306 106.876L153.694 103.124ZM104.694 88.7462L153.694 70.6167L152.306 66.8653L103.306 84.9948L104.694 88.7462ZM153.747 66.8859L104.747 47.1449L103.253 50.8551L152.253 70.5961L153.747 66.8859Z" fill="#FFDED7"/><path d="M59 211C75.5235 191.436 100.302 179 128 179 155.698 179 180.476 191.436 197 211M107 262C112.149 255.886 119.869 252 128.5 252 137.131 252 144.851 255.886 150 262" stroke="#FFDED7" stroke-width="2" stroke-linecap="round"/></svg>