<!-- 
  This Source Code Form is subject to the terms of the Mozilla Public
  License, v. 2.0. If a copy of the MPL was not distributed with this
  file, You can obtain one at http://mozilla.org/MPL/2.0/.

  Copyright © 2018 Evgeny Sysoletin. All rights reserved.
-->

<svg width="66" height="75" viewBox="0 0 66 75" fill="none" xmlns="http://www.w3.org/2000/svg">
<path fill-rule="evenodd" clip-rule="evenodd" d="M33 74C50.6731 74 65 59.6731 65 42C65 24.3269 50.6731 10 33 10C15.3269 10 1 24.3269 1 42C1 59.6731 15.3269 74 33 74Z" fill="url(#paint0_radial)" stroke="#D94E00" stroke-width="2"/>
<ellipse cx="25" cy="35.5" rx="3" ry="8.5" fill="#E56117"/>
<ellipse cx="41" cy="35.5" rx="3" ry="8.5" fill="#E56117"/>
<path d="M52.1771 1.88102C54.3587 0.615233 63.0694 11.8799 57.3762 20.4746C54.8634 24.2682 45.3025 17.4973 46.6345 14.1371C47.3369 12.3653 49.5067 12.9118 50.805 10.1742C52.1034 7.43655 50.5038 2.85185 52.1771 1.88102Z" fill="url(#paint1_linear)" stroke="#D94E00"/>
<path d="M13.7574 1.88102C11.5758 0.615233 2.86509 11.8799 8.55826 20.4746C11.0711 24.2682 20.632 17.4973 19.3 14.1371C18.5976 12.3653 16.4278 12.9118 15.1295 10.1742C13.8312 7.43655 15.4307 2.85185 13.7574 1.88102Z" fill="url(#paint2_linear)" stroke="#D94E00"/>
<defs>
<radialGradient id="paint0_radial" cx="0" cy="0" r="1" gradientUnits="userSpaceOnUse" gradientTransform="translate(33 10) rotate(90) scale(64)">
<stop stop-color="#EEEEEE"/>
<stop offset="1" stop-color="#FF4D00"/>
</radialGradient>
<linearGradient id="paint1_linear" x1="50.4239" y1="2.2179" x2="54.5761" y2="21.7821" gradientUnits="userSpaceOnUse">
<stop offset="0.18232" stop-color="#F7AD84"/>
<stop offset="1" stop-color="#DB5910"/>
</linearGradient>
<linearGradient id="paint2_linear" x1="15.5106" y1="2.2179" x2="11.3584" y2="21.7821" gradientUnits="userSpaceOnUse">
<stop offset="0.18232" stop-color="#F7AD84"/>
<stop offset="1" stop-color="#DB5910"/>
</linearGradient>
</defs>
</svg>
