<svg width="152" height="30" viewBox="0 0 152 30" fill="none" xmlns="http://www.w3.org/2000/svg">
<path d="M26.2822 20.12C26.1489 21.5067 25.8022 22.7733 25.2422 23.92C24.7089 25.04 23.9355 26.0133 22.9222 26.84C21.9089 27.64 20.6422 28.2667 19.1222 28.72C17.6022 29.1733 15.8022 29.4 13.7222 29.4C11.1622 29.4 9.02888 29.0133 7.32221 28.24C5.61555 27.44 4.24221 26.3867 3.20221 25.08C2.18888 23.7467 1.45555 22.2267 1.00221 20.52C0.575545 18.7867 0.362212 16.9733 0.362212 15.08C0.362212 13.24 0.562212 11.4667 0.962212 9.76C1.36221 8.05333 2.05555 6.54667 3.04221 5.24C4.05555 3.90666 5.41555 2.84 7.12221 2.04C8.85555 1.24 11.0555 0.839998 13.7222 0.839998C15.7489 0.839998 17.5089 1.06666 19.0022 1.52C20.5222 1.94667 21.7889 2.56 22.8022 3.36C23.8422 4.16 24.6289 5.10667 25.1622 6.2C25.6955 7.26667 26.0289 8.44 26.1622 9.72H22.0422C21.9355 8.97333 21.6955 8.26666 21.3222 7.6C20.9489 6.90667 20.4289 6.30666 19.7622 5.8C19.1222 5.26667 18.3222 4.85333 17.3622 4.56C16.4289 4.24 15.3355 4.08 14.0822 4.08H13.4422C11.6289 4.08 10.1355 4.38667 8.96221 5C7.78888 5.58667 6.85555 6.4 6.16221 7.44C5.46888 8.45333 4.98888 9.62666 4.72221 10.96C4.45555 12.2667 4.32221 13.64 4.32221 15.08C4.32221 16.44 4.44221 17.7867 4.68221 19.12C4.92221 20.4533 5.37555 21.6533 6.04221 22.72C6.73555 23.76 7.66888 24.6 8.84221 25.24C10.0155 25.88 11.5489 26.2 13.4422 26.2H14.0422C15.4022 26.2 16.5889 26.0267 17.6022 25.68C18.6155 25.3067 19.4422 24.8267 20.0822 24.24C20.7489 23.6533 21.2422 23 21.5622 22.28C21.9089 21.56 22.0822 20.84 22.0822 20.12H26.2822ZM34.2572 1.28V11.92C35.0305 11.04 36.0572 10.32 37.3372 9.76C38.6439 9.2 40.0305 8.92 41.4972 8.92C42.9905 8.92 44.3372 9.05333 45.5372 9.32C46.7372 9.58667 47.7505 10.0133 48.5772 10.6C49.4305 11.16 50.0705 11.8933 50.4972 12.8C50.9505 13.68 51.1772 14.7467 51.1772 16V29H47.3772V16.48C47.3772 15.7067 47.2039 15.0267 46.8572 14.44C46.5372 13.8267 46.0705 13.3067 45.4572 12.88C44.8705 12.4533 44.1772 12.1333 43.3772 11.92C42.5772 11.7067 41.7239 11.6 40.8172 11.6C38.8705 11.6 37.2839 12.08 36.0572 13.04C34.8572 14 34.2572 15.32 34.2572 17V29H30.4572V1.28H34.2572ZM71.6432 21.16V20L64.4432 20.2C62.7365 20.2533 61.4432 20.5467 60.5631 21.08C59.6831 21.6133 59.2431 22.44 59.2431 23.56C59.2431 24.4933 59.7365 25.2533 60.7231 25.84C61.7098 26.4267 62.9631 26.72 64.4832 26.72C65.5498 26.72 66.5231 26.5733 67.4032 26.28C68.2832 25.9867 69.0298 25.5867 69.6432 25.08C70.2832 24.5733 70.7765 23.9867 71.1232 23.32C71.4698 22.6533 71.6432 21.9333 71.6432 21.16ZM72.0831 29C72.0298 28.84 71.9898 28.6267 71.9632 28.36C71.8832 27.9333 71.8432 27.2133 71.8432 26.2C71.2032 27.08 70.2298 27.84 68.9232 28.48C67.6165 29.0933 66.0698 29.4 64.2832 29.4C63.1898 29.4 62.1098 29.2933 61.0431 29.08C60.0031 28.8667 59.0565 28.5333 58.2031 28.08C57.3765 27.6 56.6965 27 56.1631 26.28C55.6565 25.5333 55.4031 24.6267 55.4031 23.56C55.4031 22.5733 55.6698 21.72 56.2031 21C56.7365 20.2533 57.4165 19.64 58.2431 19.16C59.0965 18.68 60.0431 18.32 61.0831 18.08C62.1498 17.8133 63.1898 17.6667 64.2032 17.64L71.6032 17.44V15.76C71.6032 14.24 71.1232 13.1733 70.1632 12.56C69.2032 11.92 67.8565 11.6 66.1232 11.6C64.3365 11.6 63.0165 11.8933 62.1632 12.48C61.3365 13.04 60.7498 13.8933 60.4031 15.04H56.4831C56.5098 14.2933 56.7231 13.56 57.1231 12.84C57.5498 12.0933 58.1631 11.4267 58.9631 10.84C59.7631 10.2533 60.7498 9.78667 61.9231 9.44C63.1232 9.09333 64.5232 8.92 66.1232 8.92C67.8831 8.92 69.3498 9.12 70.5231 9.52C71.6965 9.89333 72.6298 10.44 73.3232 11.16C74.0432 11.8533 74.5498 12.7067 74.8432 13.72C75.1632 14.7067 75.3232 15.8 75.3232 17V26.24C75.3232 27.2267 75.3632 27.9333 75.4431 28.36C75.4698 28.6267 75.5098 28.84 75.5632 29H72.0831ZM83.6285 9.36V11.92C84.4018 11.04 85.4551 10.32 86.7885 9.76C88.1485 9.2 89.5618 8.92 91.0285 8.92C92.5218 8.92 93.8685 9.05333 95.0685 9.32C96.2685 9.58667 97.2818 10.0133 98.1085 10.6C98.9618 11.16 99.6018 11.8933 100.028 12.8C100.482 13.68 100.708 14.7467 100.708 16V29H96.9085V16.48C96.9085 15.7067 96.7351 15.0267 96.3885 14.44C96.0685 13.8267 95.6018 13.3067 94.9885 12.88C94.4018 12.4533 93.7085 12.1333 92.9085 11.92C92.1085 11.7067 91.2551 11.6 90.3485 11.6C88.4018 11.6 86.8151 12.08 85.5885 13.04C84.3885 14 83.7885 15.32 83.7885 17V29H79.9885V9.36H83.6285ZM122.214 15.76C121.788 14.3733 121.014 13.3333 119.894 12.64C118.801 11.92 117.454 11.56 115.854 11.56C114.574 11.56 113.468 11.7733 112.534 12.2C111.628 12.6 110.881 13.16 110.294 13.88C109.708 14.5733 109.268 15.3867 108.974 16.32C108.708 17.2267 108.574 18.1867 108.574 19.2C108.574 20.2133 108.708 21.1733 108.974 22.08C109.268 22.9867 109.708 23.7867 110.294 24.48C110.881 25.1733 111.628 25.72 112.534 26.12C113.468 26.52 114.574 26.72 115.854 26.72C117.908 26.72 119.441 26.28 120.454 25.4C121.468 24.52 122.121 23.3333 122.414 21.84H126.494C126.094 24.3467 124.961 26.24 123.094 27.52C121.228 28.8 118.814 29.44 115.854 29.44C112.148 29.44 109.361 28.5467 107.494 26.76C105.628 24.9733 104.694 22.44 104.694 19.16C104.694 17.64 104.908 16.2667 105.334 15.04C105.788 13.7867 106.468 12.7067 107.374 11.8C108.308 10.8933 109.468 10.2 110.854 9.72C112.268 9.21333 113.934 8.96 115.854 8.96C117.214 8.96 118.481 9.12 119.654 9.44C120.828 9.76 121.868 10.2133 122.774 10.8C123.708 11.3867 124.481 12.1067 125.094 12.96C125.708 13.7867 126.121 14.72 126.334 15.76H122.214ZM133.457 17.36H147.377C147.324 16.5867 147.124 15.8533 146.777 15.16C146.457 14.44 146.017 13.8267 145.457 13.32C144.897 12.7867 144.217 12.3733 143.417 12.08C142.644 11.76 141.764 11.6 140.777 11.6C139.764 11.6 138.831 11.76 137.977 12.08C137.124 12.3733 136.364 12.7867 135.697 13.32C135.057 13.8267 134.537 14.4267 134.137 15.12C133.737 15.8133 133.511 16.56 133.457 17.36ZM151.457 22.48C150.817 25.0133 149.577 26.8133 147.737 27.88C145.924 28.92 143.631 29.44 140.857 29.44C138.884 29.44 137.191 29.1867 135.777 28.68C134.364 28.1467 133.191 27.4267 132.257 26.52C131.351 25.6133 130.671 24.5333 130.217 23.28C129.791 22.0267 129.577 20.6667 129.577 19.2C129.577 17.4667 129.844 15.96 130.377 14.68C130.911 13.3733 131.671 12.3067 132.657 11.48C133.644 10.6267 134.817 10 136.177 9.6C137.564 9.17333 139.097 8.96 140.777 8.96C142.377 8.96 143.817 9.17333 145.097 9.6C146.404 10.0267 147.524 10.6667 148.457 11.52C149.391 12.3467 150.111 13.4 150.617 14.68C151.124 15.9333 151.377 17.4133 151.377 19.12V19.84H133.457C133.511 20.7733 133.684 21.6667 133.977 22.52C134.297 23.3467 134.751 24.08 135.337 24.72C135.951 25.36 136.711 25.8667 137.617 26.24C138.524 26.6133 139.604 26.8 140.857 26.8C142.564 26.8 143.964 26.4667 145.057 25.8C146.177 25.1333 147.004 24.0267 147.537 22.48H151.457Z" fill="#E3F8F7"/>
</svg>
