<!-- 
  This Source Code Form is subject to the terms of the Mozilla Public
  License, v. 2.0. If a copy of the MPL was not distributed with this
  file, You can obtain one at http://mozilla.org/MPL/2.0/.

  Copyright © 2018 Evgeny Sysoletin. All rights reserved.
-->

<svg width="257" height="282" viewBox="0 0 257 282" fill="none" xmlns="http://www.w3.org/2000/svg">
<path d="M167.503 32.6005L167.521 32.6068L167.539 32.6127C218.581 49.0835 255.5 96.9822 255.5 153.5C255.5 223.64 198.64 280.5 128.5 280.5C58.3598 280.5 1.5 223.64 1.5 153.5C1.5 96.8 38.6579 48.7747 89.9548 32.4544C104.142 27.9407 110.856 19.8937 115.686 13.1008C116.254 12.3025 116.788 11.5341 117.299 10.7985C118.989 8.36603 120.431 6.2912 122.028 4.67C124.017 2.65089 126.103 1.5 129 1.5C131.967 1.5 133.94 2.59102 135.746 4.47756C137.19 5.986 138.452 7.91183 139.962 10.2154C140.459 10.9739 140.983 11.7733 141.55 12.6123C146.062 19.2991 152.599 27.3659 167.503 32.6005Z" fill="#DBC4DB" stroke="#8783A0" stroke-width="3"/>
<path d="M65 123C65 143.435 70.5964 160 77.5 160C81.9143 160 85.7942 153.227 88.0183 143" stroke="#FFDED7" stroke-width="3" stroke-linecap="round"/>
<path d="M191.584 123C191.584 143.435 185.988 160 179.084 160C174.742 160 170.917 153.447 168.677 143.5" stroke="#FFDED7" stroke-width="3" stroke-linecap="round"/>
<path d="M117 215L117.673 214.26L117 213.649L116.327 214.26L117 215ZM128 225L127.327 225.74L128 226.351L128.673 225.74L128 225ZM105.327 224.26C104.919 224.632 104.889 225.264 105.26 225.673C105.632 226.081 106.264 226.111 106.673 225.74L105.327 224.26ZM139 215L139.673 214.26L139 213.649L138.327 214.26L139 215ZM149.327 225.74C149.736 226.111 150.368 226.081 150.74 225.673C151.111 225.264 151.081 224.632 150.673 224.26L149.327 225.74ZM116.327 215.74L127.327 225.74L128.673 224.26L117.673 214.26L116.327 215.74ZM106.673 225.74L117.673 215.74L116.327 214.26L105.327 224.26L106.673 225.74ZM138.327 215.74L149.327 225.74L150.673 224.26L139.673 214.26L138.327 215.74ZM128.673 225.74L139.673 215.74L138.327 214.26L127.327 224.26L128.673 225.74Z" fill="#FFDED7"/>
<path d="M152.306 106.876C153.342 107.259 154.492 106.73 154.876 105.694C155.259 104.658 154.73 103.508 153.694 103.124L152.306 106.876ZM104 86.8705L103.306 84.9948L98.2363 86.8705L103.306 88.7462L104 86.8705ZM153 68.741L153.694 70.6167L158.549 68.8204L153.747 66.8859L153 68.741ZM104.747 47.1449C103.723 46.7321 102.558 47.2281 102.145 48.2526C101.732 49.2772 102.228 50.4423 103.253 50.8551L104.747 47.1449ZM153.694 103.124L104.694 84.9948L103.306 88.7462L152.306 106.876L153.694 103.124ZM104.694 88.7462L153.694 70.6167L152.306 66.8653L103.306 84.9948L104.694 88.7462ZM153.747 66.8859L104.747 47.1449L103.253 50.8551L152.253 70.5961L153.747 66.8859Z" fill="#FFDED7"/>
<path d="M59 211C75.5235 191.436 100.302 179 128 179C155.698 179 180.476 191.436 197 211" stroke="#FFDED7" stroke-width="2" stroke-linecap="round"/>
<path d="M107 262C112.149 255.886 119.869 252 128.5 252C137.131 252 144.851 255.886 150 262" stroke="#FFDED7" stroke-width="2" stroke-linecap="round"/>
</svg>
