<!-- 
  This Source Code Form is subject to the terms of the Mozilla Public
  License, v. 2.0. If a copy of the MPL was not distributed with this
  file, You can obtain one at http://mozilla.org/MPL/2.0/.

  Copyright © 2018 Evgeny Sysoletin. All rights reserved.
-->

<svg width="104" height="214" viewBox="0 0 104 214" fill="none" xmlns="http://www.w3.org/2000/svg">
<path fill-rule="evenodd" clip-rule="evenodd" d="M0.766092 0.0277231C1.30306 -0.101453 1.84307 0.229127 1.97225 0.766092L2.70082 3.79466C2.82999 4.33163 2.49942 4.87164 1.96245 5.00082C1.42548 5.12999 0.88547 4.79942 0.756294 4.26245L0.0277231 1.23388C-0.101453 0.696913 0.229127 0.156899 0.766092 0.0277231ZM103.234 0.027733C103.771 0.156909 104.101 0.696923 103.972 1.23389L103.244 4.26243C103.115 4.79939 102.574 5.12997 102.038 5.0008C101.501 4.87162 101.17 4.33161 101.299 3.79464L102.028 0.766102C102.157 0.229136 102.697 -0.101443 103.234 0.027733ZM98.8625 18.1991C99.3994 18.3283 99.73 18.8683 99.6008 19.4053L98.1437 25.4624C98.0145 25.9994 97.4745 26.33 96.9375 26.2008C96.4006 26.0716 96.07 25.5316 96.1992 24.9947L97.6563 18.9375C97.7855 18.4005 98.3255 18.07 98.8625 18.1991ZM5.13752 18.1992C5.67449 18.07 6.2145 18.4006 6.34367 18.9375L7.80082 24.9947C7.92999 25.5316 7.59941 26.0716 7.06245 26.2008C6.52548 26.33 5.98547 25.9994 5.85629 25.4625L4.39915 19.4053C4.26997 18.8683 4.60055 18.3283 5.13752 18.1992ZM93.7625 39.3992C94.2994 39.5283 94.63 40.0683 94.5008 40.6053L93.0437 46.6624C92.9145 47.1994 92.3745 47.53 91.8375 47.4008C91.3006 47.2716 90.97 46.7316 91.0992 46.1947L92.5563 40.1375C92.6855 39.6006 93.2255 39.27 93.7625 39.3992ZM10.2375 39.3992C10.7745 39.27 11.3145 39.6006 11.4437 40.1375L12.9008 46.1947C13.03 46.7316 12.6994 47.2716 12.1624 47.4008C11.6255 47.53 11.0855 47.1994 10.9563 46.6624L9.49915 40.6053C9.36997 40.0683 9.70055 39.5283 10.2375 39.3992ZM15.3375 60.5991C15.8745 60.47 16.4145 60.8006 16.5437 61.3375L18.0008 67.3947C18.13 67.9316 17.7994 68.4716 17.2624 68.6008C16.7255 68.73 16.1855 68.3994 16.0563 67.8624L14.5991 61.8053C14.47 61.2683 14.8006 60.7283 15.3375 60.5991ZM88.6624 60.5992C89.1994 60.7283 89.53 61.2683 89.4008 61.8053L87.9437 67.8624C87.8145 68.3994 87.2745 68.73 86.7375 68.6008C86.2006 68.4716 85.87 67.9316 85.9991 67.3947L87.4563 61.3375C87.5855 60.8006 88.1255 60.47 88.6624 60.5992ZM20.4375 81.7991C20.9745 81.67 21.5145 82.0005 21.6437 82.5375L23.1008 88.5947C23.23 89.1316 22.8994 89.6716 22.3624 89.8008C21.8255 89.93 21.2855 89.5994 21.1563 89.0625L19.6991 83.0053C19.57 82.4683 19.9005 81.9283 20.4375 81.7991ZM83.5624 81.7992C84.0994 81.9283 84.43 82.4683 84.3008 83.0053L82.8437 89.0625C82.7145 89.5994 82.1745 89.93 81.6375 89.8008C81.1005 89.6716 80.77 89.1316 80.8991 88.5947L82.3563 82.5375C82.4855 82.0006 83.0255 81.67 83.5624 81.7992ZM25.5375 102.999C26.0745 102.87 26.6145 103.201 26.7437 103.738L28.2008 109.795C28.33 110.332 27.9994 110.872 27.4624 111.001C26.9255 111.13 26.3855 110.799 26.2563 110.262L24.7991 104.205C24.67 103.668 25.0005 103.128 25.5375 102.999ZM78.4624 102.999C78.9994 103.128 79.33 103.668 79.2008 104.205L77.7437 110.262C77.6145 110.799 77.0745 111.13 76.5375 111.001C76.0005 110.872 75.67 110.332 75.7991 109.795L77.2563 103.738C77.3855 103.201 77.9255 102.87 78.4624 102.999ZM30.6375 124.199C31.1745 124.07 31.7145 124.401 31.8437 124.938L33.3008 130.995C33.43 131.532 33.0994 132.072 32.5624 132.201C32.0255 132.33 31.4855 131.999 31.3563 131.462L29.8991 125.405C29.77 124.868 30.1005 124.328 30.6375 124.199ZM73.3624 124.199C73.8994 124.328 74.23 124.868 74.1008 125.405L72.6437 131.462C72.5145 131.999 71.9745 132.33 71.4375 132.201C70.9005 132.072 70.57 131.532 70.6991 130.995L72.1563 124.938C72.2855 124.401 72.8255 124.07 73.3624 124.199ZM35.7375 145.399C36.2745 145.27 36.8145 145.601 36.9437 146.138L38.4008 152.195C38.53 152.732 38.1994 153.272 37.6624 153.401C37.1255 153.53 36.5855 153.199 36.4563 152.662L34.9991 146.605C34.87 146.068 35.2005 145.528 35.7375 145.399ZM68.2624 145.399C68.7994 145.528 69.13 146.068 69.0008 146.605L67.5437 152.662C67.4145 153.199 66.8745 153.53 66.3375 153.401C65.8005 153.272 65.47 152.732 65.5991 152.195L67.0563 146.138C67.1855 145.601 67.7255 145.27 68.2624 145.399ZM63.1624 166.599C63.6994 166.728 64.03 167.268 63.9008 167.805L62.4437 173.862C62.3145 174.399 61.7745 174.73 61.2375 174.601C60.7005 174.472 60.37 173.932 60.4991 173.395L61.9563 167.338C62.0855 166.801 62.6255 166.47 63.1624 166.599ZM40.8375 166.599C41.3745 166.47 41.9145 166.801 42.0437 167.338L43.5008 173.395C43.63 173.932 43.2994 174.472 42.7624 174.601C42.2255 174.73 41.6855 174.399 41.5563 173.862L40.0991 167.805C39.97 167.268 40.3005 166.728 40.8375 166.599ZM58.0624 187.799C58.5994 187.928 58.93 188.468 58.8008 189.005L57.3437 195.062C57.2145 195.599 56.6745 195.93 56.1375 195.801C55.6005 195.672 55.27 195.132 55.3991 194.595L56.8563 188.538C56.9855 188.001 57.5255 187.67 58.0624 187.799ZM45.9375 187.799C46.4745 187.67 47.0145 188.001 47.1437 188.538L48.6008 194.595C48.73 195.132 48.3994 195.672 47.8624 195.801C47.3255 195.93 46.7855 195.599 46.6563 195.062L45.1991 189.005C45.07 188.468 45.4005 187.928 45.9375 187.799ZM52.9624 208.999C53.4994 209.128 53.83 209.668 53.7008 210.205L52.9722 213.234H51.0277L50.2991 210.205C50.17 209.668 50.5005 209.128 51.0375 208.999C51.3991 208.912 51.762 209.034 52 209.286C52.2379 209.034 52.6009 208.912 52.9624 208.999Z" fill="#745EFF"/>
</svg>
