<svg width="257" height="282" fill="none" xmlns="http://www.w3.org/2000/svg"><path d="M167.503 32.6005L167.521 32.6068L167.539 32.6127C218.581 49.0835 255.5 96.9822 255.5 153.5C255.5 223.64 198.64 280.5 128.5 280.5C58.3598 280.5 1.5 223.64 1.5 153.5C1.5 96.8 38.6579 48.7747 89.9548 32.4544C104.142 27.9407 110.856 19.8937 115.686 13.1008C116.254 12.3025 116.788 11.5341 117.299 10.7985C118.989 8.36603 120.431 6.2912 122.028 4.67C124.017 2.65089 126.103 1.5 129 1.5C131.967 1.5 133.94 2.59102 135.746 4.47756C137.19 5.986 138.452 7.91183 139.962 10.2154C140.459 10.9739 140.983 11.7733 141.55 12.6123C146.062 19.2991 152.599 27.3659 167.503 32.6005Z" fill="#DBC4DB" stroke="#8783A0" stroke-width="3"/><path d="M65 123C65 143.435 70.5964 160 77.5 160 81.9143 160 85.7942 153.227 88.0183 143M191.584 123C191.584 143.435 185.988 160 179.084 160 174.742 160 170.917 153.447 168.677 143.5" stroke="#FFDED7" stroke-width="3" stroke-linecap="round"/><path d="M117 215L117.673 214.26 117 213.649 116.327 214.26 117 215zM128 225L127.327 225.74 128 226.351 128.673 225.74 128 225zM105.327 224.26C104.919 224.632 104.889 225.264 105.26 225.673 105.632 226.081 106.264 226.111 106.673 225.74L105.327 224.26zM139 215L139.673 214.26 139 213.649 138.327 214.26 139 215zM149.327 225.74C149.736 226.111 150.368 226.081 150.74 225.673 151.111 225.264 151.081 224.632 150.673 224.26L149.327 225.74zM116.327 215.74L127.327 225.74 128.673 224.26 117.673 214.26 116.327 215.74zM106.673 225.74L117.673 215.74 116.327 214.26 105.327 224.26 106.673 225.74zM138.327 215.74L149.327 225.74 150.673 224.26 139.673 214.26 138.327 215.74zM128.673 225.74L139.673 215.74 138.327 214.26 127.327 224.26 128.673 225.74zM152.306 106.876C153.342 107.259 154.492 106.73 154.876 105.694 155.259 104.658 154.73 103.508 153.694 103.124L152.306 106.876zM104 86.8705L103.306 84.9948 98.2363 86.8705 103.306 88.7462 104 86.8705zM153 68.741L153.694 70.6167 158.549 68.8204 153.747 66.8859 153 68.741zM104.747 47.1449C103.723 46.7321 102.558 47.2281 102.145 48.2526 101.732 49.2772 102.228 50.4423 103.253 50.8551L104.747 47.1449zM153.694 103.124L104.694 84.9948 103.306 88.7462 152.306 106.876 153.694 103.124zM104.694 88.7462L153.694 70.6167 152.306 66.8653 103.306 84.9948 104.694 88.7462zM153.747 66.8859L104.747 47.1449 103.253 50.8551 152.253 70.5961 153.747 66.8859z" fill="#FFDED7"/><path d="M59 211C75.5235 191.436 100.302 179 128 179 155.698 179 180.476 191.436 197 211M107 262C112.149 255.886 119.869 252 128.5 252 137.131 252 144.851 255.886 150 262" stroke="#FFDED7" stroke-width="2" stroke-linecap="round"/></svg>